<?xml version="1.0" encoding="utf-8"?>
<!-- Generator: Adobe Illustrator 22.0.1, SVG Export Plug-In . SVG Version: 6.00 Build 0)  -->
<svg version="1.1" id="Body_Content" xmlns="http://www.w3.org/2000/svg" xmlns:xlink="http://www.w3.org/1999/xlink" x="0px"
	 y="0px" viewBox="0 0 18 18" style="enable-background:new 0 0 18 18;" xml:space="preserve">
<style type="text/css">
	.st0{enable-background:new    ;}
	.st1{fill:#FFFFFF;}
	.st2{fill:#00BCEB;}
</style>
<rect class="st1" width="18" height="18"/>
<g id="_Group_">
	<path id="_Compound_Path_2" class="st2" d="M14.5,2.9l0.2,0.5c-1.5,1.2-2.9,2.7-4,4.3C9.4,9.4,8.3,11.1,7.3,13c0,0-0.6,1.1-1.2,1.1
		s-0.9-0.9-1-1.2l-0.2-0.5c-0.2-0.6-0.6-1.2-1-1.7c-0.2-0.4-0.6-0.6-1-0.7C3.4,9.1,4,8.9,4.7,8.7c0.5,0,1,0.6,1.5,1.8l0.2,0.6
		c1-1.7,2.2-3.3,3.7-4.7C11.3,5,12.9,3.9,14.5,2.9z"/>
</g>
</svg>
