<svg id="Layer_1" data-name="Layer 1" xmlns="http://www.w3.org/2000/svg" viewBox="0 0 18 18"><defs><style>.cls-1{fill:#999;}.cls-2{fill:#ccc;}</style></defs><title>checkbox2</title><polygon class="cls-1" points="18 0 0 0 0 18 18 18 18 0 18 0"/><rect class="cls-2" x="2" y="2" width="14" height="14"/><g id="_Group_" data-name="&lt;Group&gt;"><path class="cls-1" d="M13.94,4.41l-.39.29a19,19,0,0,0-3.23,3.38,23.27,23.27,0,0,0-2.73,4.27c-.17.3-.72,1.2-1.42,1.2h0c-.5,0-.93-.44-1.28-1.28l-.19-.45A6.8,6.8,0,0,0,4,10.48,1.31,1.31,0,0,0,3.4,10l-.73-.26.53-.56A2.5,2.5,0,0,1,5,8.26c.53,0,1,.43,1.48,1.4A21.4,21.4,0,0,1,9,6.49a17.62,17.62,0,0,1,3.73-3l.4-.23Z"/></g></svg>