<?xml version="1.0" encoding="utf-8"?>
<!-- Generator: Adobe Illustrator 22.0.1, SVG Export Plug-In . SVG Version: 6.00 Build 0)  -->
<svg version="1.1" id="Layer_1" xmlns="http://www.w3.org/2000/svg" xmlns:xlink="http://www.w3.org/1999/xlink" x="0px" y="0px"
	 viewBox="0 0 34.2 41.2" style="enable-background:new 0 0 34.2 41.2;" xml:space="preserve">
<style type="text/css">
	.st0{fill:#FFFFFF;stroke:#C8C8C8;stroke-miterlimit:10;}
	.st1{fill:#9B9798;}
	.st2{fill:#7FBB9A;}
	.st3{fill:#157448;}
	.st4{fill:#FFFFFF;}
	.st5{font-family:'Arial-BoldMT';}
	.st6{font-size:11.0594px;}
</style>
<polygon class="st0" points="32.5,40.7 3.5,40.7 3.5,1.7 23.8,1.7 32.5,10.3 "/>
<rect x="16" y="6.2" class="st1" width="7" height="3"/>
<rect x="16" y="11.2" class="st2" width="7" height="3"/>
<rect x="16" y="15.2" class="st2" width="7" height="3"/>
<rect x="16" y="19.2" class="st2" width="7" height="3"/>
<rect x="16" y="24.2" class="st2" width="7" height="3"/>
<rect x="16" y="28.2" class="st2" width="7" height="3"/>
<rect x="16" y="34.2" class="st2" width="7" height="3"/>
<polygon class="st1" points="30,9.2 23,9.2 23,6.2 28.3,6.2 30,6.8 "/>
<rect x="23" y="11.2" class="st2" width="7" height="3"/>
<rect x="23" y="15.2" class="st2" width="7" height="3"/>
<rect x="23" y="19.2" class="st2" width="7" height="3"/>
<rect x="23" y="24.2" class="st2" width="7" height="3"/>
<rect x="23" y="28.2" class="st2" width="7" height="3"/>
<rect x="23" y="34.2" class="st2" width="7" height="3"/>
<rect x="7" y="6.2" class="st1" width="7" height="3"/>
<rect x="7" y="11.2" class="st1" width="7" height="3"/>
<rect x="7" y="15.2" class="st1" width="7" height="3"/>
<rect x="7" y="19.2" class="st1" width="7" height="3"/>
<rect x="7" y="24.2" class="st1" width="7" height="3"/>
<rect x="7" y="28.2" class="st1" width="7" height="3"/>
<rect x="7" y="34.2" class="st1" width="7" height="3"/>
<polygon class="st0" points="33,9.7 24.5,9.7 24.5,1.2 "/>
<polygon class="st3" points="15,35.6 0,33.9 0,15.3 15,13.6 "/>
<text transform="matrix(1 0 0 1 3.3618 27.981)" class="st4 st5 st6">X</text>
</svg>
