<svg id="Layer_1" data-name="Layer 1" xmlns="http://www.w3.org/2000/svg" viewBox="0 0 28 28"><defs><style>.cls-1{fill:#00bceb;}</style></defs><title>guidMe</title><path class="cls-1" d="M13,11a1,1,0,0,0-1-1H11l-1,1L9,10H8a1,1,0,0,0-1,1v4a1,1,0,0,0,1,1v4a.9.9,0,0,0,1,1c.6,0,.8-.6,1-1,.2.4.4,1,1,1a.9.9,0,0,0,1-1V16a1,1,0,0,0,1-1ZM10,9a2,2,0,0,0,0-4A2.07,2.07,0,0,0,8,7,2.07,2.07,0,0,0,10,9Zm8.2,4,.3-3.1a1.84,1.84,0,0,0,1.2-1.7A1.87,1.87,0,0,0,18,6.3a1.87,1.87,0,0,0-1.7,1.9,1.74,1.74,0,0,0,1.2,1.7l.3,2.9a18.79,18.79,0,0,0-4.9-.6v.4a32.63,32.63,0,0,1,5,.6l.2,2.3v.1l.2-2.2c2.4.7,3.7,1.9,3.7,3.1,0,2.6-4.4,3.2-9.1,3.4v1.4c5.8-.1,10.4-2,10.4-4.4C23.2,15.3,21.2,13.8,18.2,13Z"/></svg>