<svg id="Layer_1" data-name="Layer 1" xmlns="http://www.w3.org/2000/svg" viewBox="0 0 94 92"><defs><style>.cls-1{fill:#ccc;}</style></defs><title>system error</title><path class="cls-1" d="M89.42,26.35a17.38,17.38,0,0,0-10-5.2C78.51,10.76,73.55,5.48,68.79,2.8A21.57,21.57,0,0,0,59.38,0c-14-.72-19.65,8-21.33,11.52C30.25,9.24,26,13.83,24.51,15.83c-.21.29-4.38-.06-5,0a28,28,0,0,0-5.22.82,19,19,0,0,0-8.75,4.73c-5.44,5.38-7.13,15.3-4,22.24.16.36.34.71.52,1.06a18.78,18.78,0,0,0,8.71,7.92V49.24a15.28,15.28,0,0,1-6.07-6c-2.72-5.07-2-13,1.16-17.89,2.52-3.86,7.05-5.73,11.46-6.37a33.59,33.59,0,0,1,7.89-.13l1,.08.45-.86c.15-.27,3.54-6.42,11.76-3.27l1.49.56.47-1.51c0-.12,3.79-11.62,19-10.85.66,0,16.18.3,17.23,19.55l.08,1.35L78,24a14.76,14.76,0,0,1,9.3,4.42c3.89,4.25,5.4,11,2.15,16a14.62,14.62,0,0,1-6,5.39V53c2.71-.9,5-2.83,7.17-5.27C95.9,41.8,94.68,32.06,89.42,26.35ZM74,40H20a5.5,5.5,0,0,0-5.5,5.5v33A5.5,5.5,0,0,0,20,84h25.5v5h-11v3h25V89h-11V84H74a5.51,5.51,0,0,0,5.5-5.5v-33A5.51,5.51,0,0,0,74,40Zm2.5,38.5A2.5,2.5,0,0,1,74,81H20a2.5,2.5,0,0,1-2.5-2.5v-33A2.5,2.5,0,0,1,20,43H74a2.5,2.5,0,0,1,2.5,2.5ZM44.54,64V53a2,2,0,0,1,2-2h1a2,2,0,0,1,2,2V64a2,2,0,0,1-2,2h-1A2,2,0,0,1,44.54,64Zm5,6.5A2.5,2.5,0,1,1,47,68,2.5,2.5,0,0,1,49.54,70.46Z"/></svg>