<?xml version="1.0" encoding="utf-8"?>
<!-- Generator: Adobe Illustrator 21.1.0, SVG Export Plug-In . SVG Version: 6.00 Build 0)  -->
<svg version="1.1" id="Layer_1" xmlns="http://www.w3.org/2000/svg" xmlns:xlink="http://www.w3.org/1999/xlink" x="0px" y="0px"
	 viewBox="0 0 76 76" style="enable-background:new 0 0 76 76;" xml:space="preserve">
<style type="text/css">
	.st0{opacity:0.3;}
	.st1{clip-path:url(#SVGID_2_);fill:#F47421;}
	.st2{fill:#F47421;}
</style>
<g class="st0">
	<g>
		<defs>
			<rect id="SVGID_1_" y="0" width="76" height="76"/>
		</defs>
		<clipPath id="SVGID_2_">
			<use xlink:href="#SVGID_1_"  style="overflow:visible;"/>
		</clipPath>
		<path class="st1" d="M13.8,67.3C5.4,60.3,0,49.8,0,38.1C0,17.1,16.9,0,37.9,0c21,0,38,16.9,38.1,37.9S59.1,76,38.1,76
			c-8,0-15.4-2.4-21.5-6.6"/>
	</g>
</g>
<path class="st2" d="M62.6,52.2L41,15.3c-1-1.7-3.5-1.7-4.5,0l-21.2,37c-1,1.7,0.3,3.7,2.2,3.7h42.8C62.4,56,63.6,53.9,62.6,52.2
	 M42,51h-6v-6h6V51z M42,41h-6V28h6V41z"/>
</svg>
